ffmpeg started on 2016-11-27 at 18:07:10
Report written to "Output/NVENCh264/results/ffmpeg/sintelllhp1000k.log"
Command line:
Tools/ffmpeg/ffmpeg -benchmark -y -i Input/y4m/sintel.y4m -c:v h264_nvenc -preset llhp -b:v 1000k -an Output/NVENCh264/encoded/sintelllhp1000k.mkv
ffmpeg version N-82227-gdb23fde Copyright (c) 2000-2016 the FFmpeg developers
  built with gcc 5.4.0 (Ubuntu 5.4.0-6ubuntu1~16.04.2) 20160609
  configuration: --prefix=/home/jaroslav/ffmpeg_build --pkg-config-flags=--static --extra-cflags=-I/home/jaroslav/ffmpeg_build/include --extra-ldflags=-L/home/jaroslav/ffmpeg_build/lib --bindir=/home/jaroslav/bin --enable-gpl --enable-libass --enable-libfdk-aac --enable-libfreetype --enable-libmp3lame --enable-libopus --enable-libtheora --enable-libvorbis --enable-libvpx --enable-libx264 --enable-libx265 --enable-nvenc --enable-libmfx --enable-libxvid --enable-libgsm --enable-libopencore-amrnb --enable-version3 --enable-nonfree
  libavutil      55. 35.100 / 55. 35.100
  libavcodec     57. 66.101 / 57. 66.101
  libavformat    57. 57.100 / 57. 57.100
  libavdevice    57.  2.100 / 57.  2.100
  libavfilter     6. 66.100 /  6. 66.100
  libswscale      4.  3.100 /  4.  3.100
  libswresample   2.  4.100 /  2.  4.100
  libpostproc    54.  2.100 / 54.  2.100
Input #0, yuv4mpegpipe, from 'Input/y4m/sintel.y4m':
  Duration: 00:00:20.83, start: 0.000000, bitrate: 2057307 kb/s
    Stream #0:0: Video: rawvideo (I420 / 0x30323449), yuv420p(progressive), 4096x1744, SAR 1:1 DAR 256:109, 24 fps, 24 tbr, 24 tbn, 24 tbc
[h264_nvenc @ 0x3dfd1c0] The variable bitrate rate-control requires the 'qmin' and/or 'qmax' option set.
Output #0, matroska, to 'Output/NVENCh264/encoded/sintelllhp1000k.mkv':
  Metadata:
    encoder         : Lavf57.57.100
    Stream #0:0: Video: h264 (h264_nvenc) (Main) (H264 / 0x34363248), yuv420p, 4096x1744 [SAR 1:1 DAR 256:109], q=-1--1, 1000 kb/s, 24 fps, 1k tbn, 24 tbc
    Metadata:
      encoder         : Lavc57.66.101 h264_nvenc
    Side data:
      cpb: bitrate max/min/avg: 0/0/1000000 buffer size: 2000000 vbv_delay: -1
Stream mapping:
  Stream #0:0 -> #0:0 (rawvideo (native) -> h264 (h264_nvenc))
Press [q] to stop, [?] for help
frame=   19 fps=0.0 q=0.0 size=       0kB time=00:00:00.00 bitrate=N/A speed=   0x    frame=   40 fps= 39 q=49.0 size=       1kB time=00:00:00.37 bitrate=  15.9kbits/s speed=0.365x    frame=   61 fps= 39 q=49.0 size=       1kB time=00:00:01.25 bitrate=   4.8kbits/s speed=0.809x    frame=   82 fps= 40 q=49.0 size=       1kB time=00:00:02.12 bitrate=   2.8kbits/s speed=1.03x    frame=  103 fps= 40 q=49.0 size=       1kB time=00:00:03.00 bitrate=   2.0kbits/s speed=1.17x    frame=  124 fps= 40 q=49.0 size=       1kB time=00:00:03.87 bitrate=   1.5kbits/s speed=1.26x    frame=  145 fps= 40 q=49.0 size=       1kB time=00:00:04.75 bitrate=   1.3kbits/s speed=1.32x    frame=  164 fps= 25 q=49.0 size=    1288kB time=00:00:05.54 bitrate=1903.2kbits/s speed=0.828x    frame=  165 fps= 16 q=49.0 size=    1288kB time=00:00:05.58 bitrate=1889.2kbits/s speed=0.537x    frame=  166 fps= 13 q=49.0 size=    1288kB time=00:00:05.62 bitrate=1875.1kbits/s speed=0.432x    frame=  187 fps= 14 q=49.0 size=    1288kB time=00:00:06.50 bitrate=1622.8kbits/s speed=0.48x    frame=  208 fps= 15 q=49.0 size=    1288kB time=00:00:07.37 bitrate=1430.3kbits/s speed=0.525x    frame=  229 fps= 16 q=49.0 size=    1288kB time=00:00:08.25 bitrate=1278.6kbits/s speed=0.566x    frame=  250 fps= 17 q=49.0 size=    1288kB time=00:00:09.12 bitrate=1156.0kbits/s speed=0.605x    frame=  271 fps= 17 q=49.0 size=    2544kB time=00:00:10.00 bitrate=2083.9kbits/s speed=0.641x    frame=  292 fps= 18 q=49.0 size=    2544kB time=00:00:10.87 bitrate=1916.3kbits/s speed=0.675x    frame=  312 fps= 19 q=49.0 size=    2755kB time=00:00:11.70 bitrate=1927.7kbits/s speed=0.705x    frame=  333 fps= 19 q=49.0 size=    2755kB time=00:00:12.58 bitrate=1793.7kbits/s speed=0.735x    frame=  354 fps= 20 q=49.0 size=    2755kB time=00:00:13.45 bitrate=1677.1kbits/s speed=0.763x    frame=  375 fps= 21 q=49.0 size=    2755kB time=00:00:14.33 bitrate=1574.7kbits/s speed=0.79x    frame=  396 fps= 21 q=49.0 size=    2755kB time=00:00:15.20 bitrate=1484.1kbits/s speed=0.815x    frame=  417 fps= 22 q=49.0 size=    3367kB time=00:00:16.08 bitrate=1715.1kbits/s speed=0.839x    frame=  438 fps= 22 q=49.0 size=    3367kB time=00:00:16.95 bitrate=1626.6kbits/s speed=0.862x    frame=  459 fps= 23 q=49.0 size=    3556kB time=00:00:17.83 bitrate=1633.6kbits/s speed=0.883x    frame=  480 fps= 23 q=49.0 size=    3556kB time=00:00:18.70 bitrate=1557.2kbits/s speed=0.904x    frame=  496 fps= 23 q=49.0 size=    3556kB time=00:00:19.37 bitrate=1503.6kbits/s speed=0.909x    frame=  500 fps= 23 q=49.0 Lsize=    3997kB time=00:00:20.79 bitrate=1574.6kbits/s speed=0.968x    
video:3992kB audio:0kB subtitle:0kB other streams:0kB global headers:0kB muxing overhead: 0.109148%
bench: utime=0.896s
bench: maxrss=1190192kB
